<svg id="Слой_1" data-name="Слой 1" xmlns="http://www.w3.org/2000/svg" xmlns:xlink="http://www.w3.org/1999/xlink" viewBox="0 0 925 235.13"><defs><style>.cls-1{fill:none;stroke:#000;stroke-miterlimit:10;stroke-width:5px;}.cls-2{fill:url(#Безымянный_градиент_65);}.cls-3,.cls-4{stroke:#fff;stroke-linecap:round;stroke-linejoin:round;stroke-width:8px;}.cls-3{fill:url(#Безымянный_градиент_65-2);}.cls-4{fill:url(#Безымянный_градиент_65-3);}.cls-5{fill:url(#Безымянный_градиент_67);}.cls-6{fill:#fff;}.cls-7{fill:#4c6980;}.cls-8{fill:#2ecece;}</style><linearGradient id="Безымянный_градиент_65" x1="2.5" y1="119.02" x2="392.64" y2="119.02" gradientUnits="userSpaceOnUse"><stop offset="0" stop-color="#1688ff"/><stop offset="0.13" stop-color="#1e9ef0"/><stop offset="0.29" stop-color="#25b3e1"/><stop offset="0.47" stop-color="#2ac2d6"/><stop offset="0.68" stop-color="#2dcbd0"/><stop offset="1" stop-color="#2ecece"/></linearGradient><linearGradient id="Безымянный_градиент_65-2" x1="21.97" y1="113.19" x2="23.35" y2="113.19" xlink:href="#Безымянный_градиент_65"/><linearGradient id="Безымянный_градиент_65-3" x1="32.65" y1="91.43" x2="79.13" y2="91.43" xlink:href="#Безымянный_градиент_65"/><linearGradient id="Безымянный_градиент_67" x1="518.4" y1="120.91" x2="922.5" y2="120.91" gradientUnits="userSpaceOnUse"><stop offset="0" stop-color="#ee6002"/><stop offset="0.3" stop-color="#ee5e05"/><stop offset="0.53" stop-color="#ed570f"/><stop offset="0.74" stop-color="#eb4b1f"/><stop offset="0.93" stop-color="#e93a37"/><stop offset="1" stop-color="#e83341"/></linearGradient></defs><title>Logo</title><path d="M109.53,203.35c11.37.73,20.85-7.32,20.95-17.93l.1-10.84,231.63,20.17,1.49.1c17.46.8,31.64-9.26,31.24-22.4l-2.89-95.11c-.39-12.77-14.95-22.9-31.49-20.83-.48.06-2,.2-2.5.24L131.5,75.44l.09-10.53c.1-10.25-9-18-20.19-17.28a22.54,22.54,0,0,0-11,3.69L11,110.51a17.63,17.63,0,0,0-7.95,14.22A16.69,16.69,0,0,0,10.33,139l88.12,60.51A22.16,22.16,0,0,0,109.53,203.35Z"/><path class="cls-1" d="M381.43,176.37,111.56,157.1l-.31,26.48c-.06,5.12-6.21,7.85-10.71,4.81L4.94,123.73a5.8,5.8,0,0,1,.25-9.62l97.17-64.45c4.51-3,10.48-.42,10.42,4.53L112.47,80,371.69,59.14c4.88-.35,9.68-.53,13.79,1.37,2.27,1,4,2.42,4,4.66l3.12,103.52C392.77,173.3,387.65,176.8,381.43,176.37Z"/><path class="cls-2" d="M381.43,176.37,111.56,157.1l-.31,26.48c-.06,5.12-6.21,7.85-10.71,4.81L4.94,123.73a5.8,5.8,0,0,1,.25-9.62l97.17-64.45c4.51-3,10.48-.42,10.42,4.53L112.47,80,378,57.83c6.1-.48,11.35,2.86,11.49,7.34l3.12,103.52C392.77,173.3,387.65,176.8,381.43,176.37Z"/><line class="cls-3" x1="23.35" y1="112.74" x2="21.97" y2="113.64"/><line class="cls-4" x1="79.13" y1="76.21" x2="32.65" y2="106.65"/><path d="M112,141.5l.42-35.57a.67.67,0,0,0-.67-.7l-11,.31a.64.64,0,0,1-.64-.69l.1-7.85a.72.72,0,0,1,.66-.73l35.49-1.56a.69.69,0,0,1,.73.71l-.07,8.35a.78.78,0,0,1-.74.77l-11.92.33a.76.76,0,0,0-.71.76l-.38,36.24a.7.7,0,0,1-.71.72l-9.92-.34A.72.72,0,0,1,112,141.5Z"/><path d="M179,143.71l.06-19.31a.83.83,0,0,0-.84-.81l-19.22,0a.79.79,0,0,0-.79.78l-.11,18.7a.76.76,0,0,1-.8.76l-11.11-.38a.78.78,0,0,1-.75-.8l.35-47.55a.8.8,0,0,1,.76-.79l11-.49a.74.74,0,0,1,.78.75l-.11,18a.77.77,0,0,0,.79.77l19.19-.26a.84.84,0,0,0,.85-.82l.05-18.58a.87.87,0,0,1,.84-.84l12.23-.54a.8.8,0,0,1,.87.78l-.06,51.14a.82.82,0,0,1-.88.8l-12.3-.42A.86.86,0,0,1,179,143.71Z"/><path d="M241.42,134.16l-19.11-.32a.94.94,0,0,0-.92.6l-3.5,10.8a.9.9,0,0,1-.91.58l-13-.44a.88.88,0,0,1-.86-1.14l19.3-52.73a1,1,0,0,1,.9-.62l18.14-.8a1,1,0,0,1,1,.55l22.13,55.6c.23.6-.28,1.2-1,1.18l-16.42-.57a1.05,1.05,0,0,1-1-.68l-3.72-11.34A1,1,0,0,0,241.42,134.16Zm-15.58-10.41,11.87,0a.9.9,0,0,0,.95-1.12L232.12,103l-.83,0-6.38,19.61A.89.89,0,0,0,225.84,123.75Z"/><path d="M286.32,147.25l-.51-46a1,1,0,0,0-1.15-.9l-18.18.51a1,1,0,0,1-1.09-.88l-.08-10.07a1,1,0,0,1,1.07-1l59.52-2.62a1.11,1.11,0,0,1,1.27.93l.18,10.89a1.15,1.15,0,0,1-1.24,1l-20.23.57a1.11,1.11,0,0,0-1.18,1l.64,47.11a1.06,1.06,0,0,1-1.19.93l-16.68-.57A1.12,1.12,0,0,1,286.32,147.25Z"/><path d="M813.16,205.15c-11.38.71-20.79-7.18-20.79-17.61V176.85l-242.7,20-1.49.09c-17.47.79-32-9.1-32-22.06V79.67c0-13,10.92-21.88,28.39-21.09.49,0,5.15.12,5.64.16L792.37,77.65V67c0-10.44,9.41-18.33,20.79-17.62a22.72,22.72,0,0,1,11.15,3.77L914.07,113a17.06,17.06,0,0,1,0,28.51L824.3,201.39A22.73,22.73,0,0,1,813.16,205.15Z"/><path class="cls-1" d="M529.89,178.7l281.78-19.16v26.18c0,5,6.13,7.73,10.69,4.73l97.55-64.19a5.78,5.78,0,0,0,0-9.64l-97.55-65.2C817.8,48.37,811.67,51,811.67,56V82.22l-275.28-21c-5-.36-9.89-.53-14,1.4-2.28,1.06-4,2.46-4,4.74V171.11C518.4,175.67,523.65,179.13,529.89,178.7Z"/><path class="cls-5" d="M529.89,178.7l281.78-19.16v26.18c0,5,6.13,7.73,10.69,4.73l97.55-64.19a5.78,5.78,0,0,0,0-9.64l-97.55-65.2C817.8,48.37,811.67,51,811.67,56V82.22L529.89,59.85c-6.24-.49-11.49,2.91-11.49,7.47V171.11C518.4,175.67,523.65,179.13,529.89,178.7Z"/><path class="cls-6" d="M617.28,155.31V105A1.23,1.23,0,0,0,616,103.9l-21.87-.69a1.3,1.3,0,0,1-1.38-1.11V90.28c0-.59.62-1,1.38-1l63.8,3.31a1.12,1.12,0,0,1,1.13,1v10.7a1,1,0,0,1-1.13.92l-19.24-.61a1.08,1.08,0,0,0-1.21,1V154.4a1.18,1.18,0,0,1-1.2,1l-17.71.82A1.11,1.11,0,0,1,617.28,155.31Z"/><path class="cls-6" d="M714,151V130a.91.91,0,0,0-.94-.87l-23,.16a1,1,0,0,0-1,.92v21.89a1,1,0,0,1-1,1l-15,.7a1,1,0,0,1-1.08-.89V94.25a1,1,0,0,1,1.08-.89l15,.78a1,1,0,0,1,1,1v21.23a1,1,0,0,0,1,.94l23,.3a.89.89,0,0,0,.94-.87V96.37a.85.85,0,0,1,.94-.83l13,.67a.94.94,0,0,1,.9.91V150.3a.94.94,0,0,1-.9.9l-13,.6A.86.86,0,0,1,714,151Z"/><path class="cls-6" d="M771,138.05l-15.2.37a.84.84,0,0,0-.78.61l-3,10.46a.88.88,0,0,1-.79.62l-11.76.55a.8.8,0,0,1-.81-1.07L756,98.22a.75.75,0,0,1,.76-.51l14.46.74a.81.81,0,0,1,.72.58l15.35,48.4a.8.8,0,0,1-.68,1l-11.43.53a.71.71,0,0,1-.72-.54l-2.71-9.86A.74.74,0,0,0,771,138.05Zm-12.24-9.2,9.46-.07a.8.8,0,0,0,.74-1l-5.05-18.1h-.66L758,127.81A.8.8,0,0,0,758.76,128.85Z"/><path class="cls-6" d="M800.9,147.06V110.51a.74.74,0,0,0-.68-.76l-11.42-.37a.76.76,0,0,1-.71-.78v-8.5a.69.69,0,0,1,.71-.73l33.89,1.75a.71.71,0,0,1,.61.75v7.9a.64.64,0,0,1-.61.69l-10.41-.33a.67.67,0,0,0-.65.71v35.74a.74.74,0,0,1-.64.76l-9.42.44A.68.68,0,0,1,800.9,147.06Z"/><path class="cls-7" d="M552.48,87l.25-.37C552.65,86.73,552.56,86.85,552.48,87Z"/><path d="M376.71,202.51c5.26-3.07,12.32-6.17,19.29-6.07a18.81,18.81,0,0,1,10,2.91c15.85,10.15,15.86,31.27,15.85,31.48a2.33,2.33,0,0,0,1.82,2.3,2.25,2.25,0,0,0,1.63-.3l.15-.1.15-.1a1.19,1.19,0,0,0,.15-.09l.15-.1.15-.1.15-.1c.05,0,.09-.07.15-.1l.14-.1a.49.49,0,0,0,.15-.1.75.75,0,0,0,.15-.09l.15-.1.15-.1.15-.1.15-.1.15-.1a1.19,1.19,0,0,0,.15-.09l.15-.1.15-.1.15-.1.15-.1.15-.1a1,1,0,0,0,.15-.1,1.1,1.1,0,0,0,.14-.09l.15-.1.15-.1.15-.1.15-.1a.49.49,0,0,0,.15-.1.75.75,0,0,0,.15-.09l.15-.1.15-.1.15-.1.15-.1.15-.1a.65.65,0,0,0,.15-.1c.05,0,.09-.06.15-.09l.15-.1.15-.1.14-.1.16-.1a2.23,2.23,0,0,0,1.07-1.15c.1-.23,7-16.41,17.69-25.43a18,18,0,0,1,8.07-1.89c18.47.26,33,33,33.11,33.33a2.3,2.3,0,0,0,2.06,1.38h.06a2.25,2.25,0,0,0,1-.27,1472471205060.38,1472471205060.38,0,0,1,.3-.2.78.78,0,0,0,.15-.1c.06,0,.1-.07.15-.09s.1-.08.15-.1l.15-.1c.06,0,.09-.07.15-.1s.09-.07.15-.1.09-.07.15-.1.09-.07.15-.09a.78.78,0,0,1,.15-.1l.15-.1a1.21,1.21,0,0,0,.14-.1,1472471205060.45,1472471205060.45,0,0,1,.3-.2.78.78,0,0,0,.15-.1c.06,0,.1-.07.15-.09l.15-.1.15-.1a572627690807.31,572627690807.31,0,0,1,.3-.2.78.78,0,0,0,.15-.1c.05,0,.09-.07.15-.09a.78.78,0,0,1,.15-.1l.15-.1c.05,0,.09-.07.15-.1s.09-.07.15-.1a1.21,1.21,0,0,0,.14-.1.78.78,0,0,0,.15-.1c.06,0,.1-.07.15-.09l.15-.1.15-.1a5153649217714.77,5153649217714.77,0,0,1,.3-.2.78.78,0,0,0,.15-.1c.06,0,.1-.07.15-.09s.1-.08.15-.1l.15-.1c.05,0,.09-.07.15-.1s.09-.07.15-.1a2.3,2.3,0,0,0,1.41-2.12,2,2,0,0,0-.09-.68c-.47-9.61.18-30.9,6.77-39.87a15.45,15.45,0,0,1,2.72-.22c16.45.24,45.2,21,45.49,21.18a2.29,2.29,0,0,0,1.29.43H558a2.3,2.3,0,0,0,1-.27.78.78,0,0,0,.15-.1s.09-.07.15-.09a.78.78,0,0,1,.15-.1l.15-.1c.05,0,.09-.07.15-.1s.09-.07.15-.1a1.21,1.21,0,0,0,.14-.1.78.78,0,0,0,.15-.1c.06,0,.1-.07.15-.09s.1-.08.15-.1l.15-.1a.78.78,0,0,0,.15-.1.78.78,0,0,0,.15-.1.78.78,0,0,0,.15-.1c.06,0,.1-.07.15-.09s.1-.08.15-.1l.15-.1s.09-.07.15-.1.09-.07.15-.1.09-.07.15-.1.09-.07.15-.1.09-.07.15-.09l.14-.1c.06,0,.1-.07.15-.1a515364921749.35,515364921749.35,0,0,1,.3-.2.78.78,0,0,0,.15-.1c.06,0,.1-.07.15-.09s.1-.08.15-.1.1-.07.15-.1a515364921749.38,515364921749.38,0,0,0,.3-.2c.06,0,.09-.07.15-.1s.09-.07.15-.1.09-.07.15-.09.09-.07.15-.1.09-.07.15-.1a1.21,1.21,0,0,0,.14-.1.78.78,0,0,0,.15-.1.78.78,0,0,0,.15-.1,2.29,2.29,0,0,0,1.42-2.11,2.35,2.35,0,0,0-.69-1.7c-6.94-10.57-22.28-38.69-13.84-47.76.38-.4.8-.76,1.22-1.14,10.78-5.22,25.62-5.36,29.11-5.31a12.52,12.52,0,0,1,1.39,0h.06a2.1,2.1,0,0,0,1-.26l.15-.1c.06,0,.1-.07.15-.1a1546094765246.48,1546094765246.48,0,0,0,.45-.3c.06,0,.1-.07.15-.09s.09-.08.15-.1.09-.07.15-.1.09-.07.15-.1.09-.07.15-.1.09-.07.15-.1.09-.07.15-.09a1.21,1.21,0,0,1,.14-.1l.15-.1a1288412304306.67,1288412304306.67,0,0,1,.3-.2,515364921749.28,515364921749.28,0,0,1,.3-.2c.06,0,.1-.07.15-.09s.1-.08.15-.1a1288412304437.36,1288412304437.36,0,0,0,.3-.2c.06,0,.09-.07.15-.1s.09-.07.15-.1.09-.07.15-.09l.15-.1.15-.1c.05,0,.09-.07.15-.1a1.21,1.21,0,0,0,.14-.1.78.78,0,0,0,.15-.1.78.78,0,0,0,.15-.1c.06,0,.1-.07.15-.09s.1-.07.15-.1a5153649217444.54,5153649217444.54,0,0,0,.6-.4c.06,0,.1-.07.15-.09a.78.78,0,0,1,.15-.1s.09-.07.15-.1a2.34,2.34,0,0,0,.41-4.07c-2.56-2.64-22.79-24.06-22.61-40.41.19-17.59,18.11-42.12,18.29-42.36a2.36,2.36,0,0,0,0-2.82,2.27,2.27,0,0,0-2.69-.71c-.16.08-16.56,7.14-30,7-6.33-.08-10.88-1.77-13.53-5C530.07,42,537.74,4.35,537.82,4a2.34,2.34,0,0,0-1.27-2.59,2.22,2.22,0,0,0-2.25.21l-.15.1-.15.09-.15.1c-.06,0-.1.07-.15.1l-.15.1-.15.1-.15.1-.15.1-.15.09-.15.1-.15.1-.15.1-.15.1-.15.1-.15.09-.15.1-.14.1-.15.1a.78.78,0,0,0-.15.1l-.15.1-.15.1-.15.09-.15.1-.15.1-.15.1-.15.1-.15.1-.15.09-.15.1-.15.1-.15.1a.71.71,0,0,0-.14.1l-.15.1a.78.78,0,0,0-.15.1l-.15.09-.15.1-.15.1-.15.1-.15.1-.15.1a2.16,2.16,0,0,0-.65.56c-.16.21-10.56,13.78-23.64,23.37-6.11,3.55-12.52,5.8-18.56,5.22-21.26-2.1-31.2-32.76-31.3-33.07A2.23,2.23,0,0,0,451.9,0a2.19,2.19,0,0,0-1.38.56l-.14.09c-.05,0-.11.06-.15.1s-.11.06-.15.1a.78.78,0,0,0-.15.1.78.78,0,0,0-.15.1.75.75,0,0,0-.15.09l-.15.1-.15.1-.15.1-.15.1-.15.1-.15.1a1.19,1.19,0,0,0-.15.09s-.1.06-.15.1-.1.06-.15.1-.1.06-.14.1a.78.78,0,0,0-.15.1l-.15.09s-.11.06-.15.1-.11.06-.15.1-.11.06-.15.1-.11.06-.15.1l-.15.1-.15.1-.15.09-.15.1-.15.1-.15.1-.15.1-.15.1-.14.09s-.11.06-.15.1-.11.06-.15.1-.11.06-.15.1-.11.06-.15.1a.78.78,0,0,0-.15.1.78.78,0,0,0-.15.1l-.15.09-.15.1s-.1,0-.14.09a2.24,2.24,0,0,0-.9,1.35C443.6,6.12,438,30.71,423.25,43a25.73,25.73,0,0,1-11.76,2.33c-18.9-.26-42-14.75-42.22-14.89a2.23,2.23,0,0,0-2.69.21h0l-.14.08h0s-.1.05-.14.09h0s-.1.05-.14.09h0s-.09.05-.14.09h0l-.14.09h0l-.14.09h0l-.15.08h0a1.19,1.19,0,0,1-.15.09h0c-.05,0-.1.05-.14.09h0c-.05,0-.1.05-.14.09h0a.67.67,0,0,0-.14.09h0a.67.67,0,0,0-.14.09h0a.67.67,0,0,0-.14.09h0l-.14.08h0c-.05,0-.1.05-.14.09h0s-.1.05-.14.09h0a1.1,1.1,0,0,0-.14.09h0a1.1,1.1,0,0,0-.14.09h0a1.1,1.1,0,0,0-.14.09h0l-.14.08h0s-.09,0-.14.09h0s-.09,0-.14.09h0l-.15.09h0A.67.67,0,0,0,363,33h0a.67.67,0,0,0-.14.09h0l-.14.08v0l-.14.08h0c-.05,0-.1.05-.14.09h0c-.05,0-.1,0-.14.09h0a.67.67,0,0,0-.14.09h0a1.1,1.1,0,0,0-.14.09h0a1.1,1.1,0,0,0-.14.09h0l-.14.08h0s-.1,0-.14.09h0s-.09,0-.14.09h0s-.09.05-.14.09h0l-.14.09h0l-.14.09h0l-.15.08v0l-.14.08h0c-.05,0-.1,0-.14.09a2.35,2.35,0,0,0-.61,2.68c4.3,10.08,14.15,38.32,8.26,47.8a8.24,8.24,0,0,1-.8,1A39.61,39.61,0,0,1,354,88a79.44,79.44,0,0,1-13.93-1.5,2.18,2.18,0,0,0-1.73.35l-.14.09L338,87l-.15.1-.15.1-.15.1-.15.09-.15.1-.15.1c-.05,0-.09.07-.15.1l-.14.1a2576824608706.43,2576824608706.43,0,0,0-.3.2.75.75,0,0,0-.15.09c-.06,0-.1.07-.15.1l-.15.1-.15.1-.15.1-.15.1-.15.09-.15.1-.15.1L335,89l-.15.1-.15.1-.14.1a.75.75,0,0,0-.15.09c-.06,0-.1.07-.15.1l-.15.1c-.06,0-.1.07-.15.1a.78.78,0,0,0-.15.1l-.15.1-.15.09-.15.1-.15.1-.15.1-.15.1-.15.1-.15.09-.15.1-.14.1a2.29,2.29,0,0,0-1.09,1.34,2.34,2.34,0,0,0,1.34,2.83c7.81,3.2,27.91,13.65,27.11,23.47-.59,7.25-12.1,16.86-21.8,23.57-1.49.93-2.83,1.73-3.94,2.36,0,0,0,0,0,0l-.11.06,0,0-.11.07,0,0a.39.39,0,0,1-.11.06l0,0-.11.06s0,0,0,0l-.11.06,0,0-.1.06,0,0-.1.06-.05,0-.1.06-.05,0-.1.07s0,0-.05,0l-.1.06-.05,0-.1.06,0,0-.1.06-.05,0-.1.06-.05,0-.1.06a.08.08,0,0,0,0,0,.39.39,0,0,0-.11.06l0,0-.11.06,0,0-.11.06s0,0,0,0l-.11.06,0,0-.11.06,0,0-.11.06,0,0-.1.06-.05,0-.1.06-.05,0-.1.06-.05,0-.1.06,0,0-.1.06-.05,0-.1.06-.05,0-.1.06-.05,0-.1.07,0,0-.11.06s0,0,0,0l-.11.06,0,0-.11.06,0,0-.11.06,0,0-.11.06,0,0-.11.06,0,0a.39.39,0,0,1-.11.06s0,0,0,0a.39.39,0,0,1-.11.06l0,0-.1.06,0,0-.1.06-.05,0-.1.06-.05,0-.1.06-.05,0-.1.07a2.32,2.32,0,0,0-1,2.81,2.26,2.26,0,0,0,2.57,1.48,99.54,99.54,0,0,1,17.75-1.43c9.88.14,22.73,2.12,27.79,10.78,9.48,16.2-9.79,43-10,43.24a2.35,2.35,0,0,0,.27,3.07,2.26,2.26,0,0,0,3,.08l0,0a.6.6,0,0,0,.11-.06l0,0a.6.6,0,0,0,.11-.06l0,0a1.05,1.05,0,0,1,.11-.07l0,0a1.05,1.05,0,0,1,.11-.07l0,0a1.05,1.05,0,0,1,.11-.07l0,0a.39.39,0,0,1,.11-.06l0,0s.07,0,.11-.06l0,0a.53.53,0,0,0,.1-.06l.05,0a.53.53,0,0,0,.1-.06l.05,0,.1-.07,0,0a1.05,1.05,0,0,0,.11-.07l0,0,.11-.06,0,0s.08,0,.11-.06l0,0a.39.39,0,0,0,.11-.06l0,0a.39.39,0,0,0,.11-.06l0,0s.08,0,.11-.07l0,0s.08,0,.11-.07l0,0a.6.6,0,0,1,.11-.06l0,0s.07,0,.11-.06l0,0,.11-.06,0,0,.11-.06,0,0,.11-.06,0,0,.1-.07.05,0,.1-.07,0,0a.53.53,0,0,1,.1-.06l0,0s.08,0,.11-.06l0,0a.39.39,0,0,0,.11-.06l0,0a.39.39,0,0,0,.11-.06l0,0a1.05,1.05,0,0,0,.11-.07l0,0a1.05,1.05,0,0,0,.11-.07l0,0,.11-.06,0,0s.08,0,.11-.06l0,0a.6.6,0,0,0,.11-.06l0,0,.11-.06,0,0a1.05,1.05,0,0,1,.11-.07l0,0a1.05,1.05,0,0,1,.11-.07l0,0a1.05,1.05,0,0,1,.11-.07l0,0a.53.53,0,0,1,.1-.06l.05,0s.07,0,.1-.06l.05,0a.53.53,0,0,0,.1-.06l.05,0a.53.53,0,0,0,.1-.06S375.28,203.58,376.71,202.51Z"/><path class="cls-6" d="M416,189.26c11.17,7.15,15.22,18.8,16.67,26.55,5.37-9.82,16.67-26.42,31.68-26.21,14.4.2,25.9,16.24,31.83,26.58.3-13.25,2.73-35.36,15.44-38.21a18.93,18.93,0,0,1,4.32-.41c11.72.16,28.35,9.46,38.3,15.76-7-12.36-16.91-34-7.92-43.66,8.8-9.47,26-11.29,34.88-11.56-6.65-7.5-20.13-24.5-20-39,.15-13.23,9.17-29.32,14.63-37.87-6.18,2.1-15.64,4.71-24.25,4.59-7.5-.11-13.05-2.28-16.49-6.48-8.44-10.26-6.72-32.85-5-45.08-9.07,10.2-28.3,28.86-45.61,27.1s-27.46-19.26-31.76-29c-3.22,10-11,28.74-26,36.45a29,29,0,0,1-13.82,2.9c-14-.19-29.6-7.52-37.73-11.93,4.22,11.28,11.61,34.49,5.31,44.63-3.69,6-11.6,8.88-23.49,8.71l-1.5,0c8.46,5,18.22,12.73,17.5,21.56-.79,9.75-14.85,20.78-24.51,27.26,2.4-.17,5.09-.27,7.92-.24,15.41.22,26.05,4.61,30.78,12.7,7,12,1,27.83-4.27,37.74,5.61-3.26,13.24-6.56,21-6.45A22.58,22.58,0,0,1,416,189.26Z"/><path d="M406.55,67.89c-2.58-2.42-5.57-4.48-8.33-6.74A84.12,84.12,0,0,0,390,55a1.52,1.52,0,1,0-1.67,2.54c5.47,3.9,9.75,10,16.09,12.77C406.14,71.07,408,69.25,406.55,67.89Z"/><path d="M416.07,64.88a27.07,27.07,0,0,0-3-4.14L409.42,57c-2-2.07-5.18,1-3.19,3.16L409.84,64a26.21,26.21,0,0,0,4,3.11C415.14,68.05,417,66.24,416.07,64.88Z"/><path d="M411.64,161.4c-2.84,1.79-5.34,4.36-7.84,6.64-2.71,2.46-5.48,5.07-7,8.55-.6,1.39,1.1,3.11,2.34,2.24,2.87-2,4.92-4.88,7.28-7.51s4.93-5,6.87-7.85C414.06,162.36,412.8,160.67,411.64,161.4Z"/><path d="M413.53,168.29c-1.54,4-4.27,7.26-5.71,11.24-.73,2,2.07,3.62,3.48,2.12a21.36,21.36,0,0,0,5.54-12.86C417,166.72,414.18,166.6,413.53,168.29Z"/><path d="M521.11,30.86c-2.08,1.89-3.3,4.36-4.73,6.61l-5.07,8c-1.11,1.75,1.68,3,2.92,1.36l5.12-7c1.76-2.4,4-4.82,5-7.53C524.92,30.7,522.52,29.58,521.11,30.86Z"/><path d="M521.65,45.16a20.11,20.11,0,0,1-2.45,6,1.56,1.56,0,0,0,2.61,1.71A10.43,10.43,0,0,0,524,45.31,1.2,1.2,0,0,0,521.65,45.16Z"/><path d="M536.24,175.57a53.88,53.88,0,0,0-13.21-11c-1.5-.89-2.61,1.37-1.26,2.31,4.45,3.12,7.74,7.5,12.15,10.61C535.18,178.36,537.44,177,536.24,175.57Z"/><path d="M537,164.71a47.21,47.21,0,0,1-3.68-4.45c-1.51-2.07-5,.06-3.42,2.15a20.38,20.38,0,0,0,4.77,4.77A1.7,1.7,0,0,0,537,164.71Z"/><line class="cls-8" x1="806.22" y1="89.51" x2="806.79" y2="89.53"/><path class="cls-6" d="M806.91,91.58h-.13l-.57,0a2.14,2.14,0,0,1-2-2.15,1.93,1.93,0,0,1,2-2l.57,0a2.13,2.13,0,0,1,2,2.14A1.92,1.92,0,0,1,806.91,91.58Z"/><line class="cls-8" x1="621.99" y1="76.34" x2="790.12" y2="88.3"/><path class="cls-6" d="M790.19,90.55h-.1l-168.3-10c-2.73-.17-4.87-2.2-4.76-4.54s2.43-4.06,5.16-3.82l168,13.88c.78.07,1.39,1.12,1.37,2.35S790.92,90.52,790.19,90.55Z"/><path d="M469,126.75q-9,22.69-25.58,26.95a15.92,15.92,0,0,1-4,.51q-8.73,0-17.61-10.57-6-7.17-6-18.59,0-12.63,6.74-27.12a41.2,41.2,0,0,1,7.05-10.58q4.74-5.28,9-5.28a6.58,6.58,0,0,1,4.59,2q2.15,2.06,11.49,5.46a17.79,17.79,0,0,1,10.41,9.21q5.37,11.43,5.37,19.62A21.9,21.9,0,0,1,469,126.75Zm-12.25-10.57q-1.08-12.45-6-14.84a3.47,3.47,0,0,0-1.38-.34q-1.85,0-4.6,3.41-3.06,3.93-4.75,4.6c-.71.35-1.73,0-3.06-1a6.74,6.74,0,0,0-2.6-1.53,1,1,0,0,0-.77.34q-5.37,5.11-5.36,15.86a23.84,23.84,0,0,0,3.06,12.45q4.29,7,7.2,7,6.73,0,13-9.38Q457.53,123.86,456.77,116.18Z"/><path d="M523.88,146.44a1.74,1.74,0,0,1,.37,1.1q0,2.81-5.87,4.28a143.19,143.19,0,0,1-16.15-15.41q-10.77-11.62-16-16.15-.37,3.18-1.35,16.64a85.64,85.64,0,0,1-2.2,16.14,6.57,6.57,0,0,0-1.53.62A3.1,3.1,0,0,1,479,154q-5.39-1.22-5.38-7.46a32.15,32.15,0,0,1,.49-4.89c.32-2.37.53-3.83.61-4.41q.48-7.08.61-16.88V107.05a180.36,180.36,0,0,1,1.83-28q1.23-7.59,14.32-7,6.6.24,11.49,6.6a20.43,20.43,0,0,1,4.53,12.72q0,5.76-4.28,11.5a26.65,26.65,0,0,1-9,8.07c-1.47.82-2.21,1.72-2.21,2.7s.86,2.32,2.57,3.79l3.92,3.18q.12.12,13.46,12.23Q520.33,140.45,523.88,146.44ZM498.07,91.52a16.66,16.66,0,0,0,.25-3.92A9.11,9.11,0,0,0,496.18,83c-1.19-1.38-3.08-2.08-5.69-2.08-2,0-3.18.61-3.67,1.84a35.59,35.59,0,0,0-.61,7q0,1.59.36,8.2a65,65,0,0,1,0,8.19Q496.73,98.5,498.07,91.52Z"/></svg>