<svg id="Слой_1" data-name="Слой 1" xmlns="http://www.w3.org/2000/svg" xmlns:xlink="http://www.w3.org/1999/xlink" viewBox="0 0 190.02 190.02"><defs><style>.cls-1{fill:none;stroke:#000;stroke-miterlimit:10;stroke-width:5px;}.cls-2{fill:url(#Безымянный_градиент_65);}.cls-3{fill:#2ecece;}.cls-4{fill:#fff;}.cls-5{fill:url(#Безымянный_градиент_67);}</style><linearGradient id="Безымянный_градиент_65" x1="36.02" y1="104.24" x2="164.92" y2="178.66" gradientUnits="userSpaceOnUse"><stop offset="0" stop-color="#1688ff"/><stop offset="0.13" stop-color="#1e9ef0"/><stop offset="0.29" stop-color="#25b3e1"/><stop offset="0.47" stop-color="#2ac2d6"/><stop offset="0.68" stop-color="#2dcbd0"/><stop offset="1" stop-color="#2ecece"/></linearGradient><linearGradient id="Безымянный_градиент_67" x1="13.6" y1="42.47" x2="181.73" y2="42.47" gradientUnits="userSpaceOnUse"><stop offset="0" stop-color="#ee6002"/><stop offset="0.3" stop-color="#ee5e05"/><stop offset="0.53" stop-color="#ed570f"/><stop offset="0.74" stop-color="#eb4b1f"/><stop offset="0.93" stop-color="#e93a37"/><stop offset="1" stop-color="#e83341"/></linearGradient></defs><title>Logo1</title><path d="M56.31,179.9c4.64.3,8.51-3,8.55-7.32l0-4.43,94.61,8.24.61,0c7.13.33,12.93-3.78,12.76-9.15l-1.18-38.85c-.16-5.22-6.1-9.35-12.86-8.51-.2,0-.83.08-1,.1l-92.55,7.63,0-4.3c0-4.18-3.7-7.34-8.25-7a9.24,9.24,0,0,0-4.48,1.5L16.08,142a7.2,7.2,0,0,0-3.25,5.81,6.83,6.83,0,0,0,3,5.83l36,24.72A9,9,0,0,0,56.31,179.9Z"/><path class="cls-1" d="M167.37,168.88,57.14,161,57,171.83a2.73,2.73,0,0,1-4.38,2L13.58,147.38a2.37,2.37,0,0,1,.11-3.93l39.69-26.33c1.84-1.22,4.28-.17,4.25,1.85l-.12,10.53L163.4,121a11.45,11.45,0,0,1,5.63.55c.93.43,1.62,1,1.65,1.91L172,165.74C172,167.63,169.91,169.06,167.37,168.88Z"/><path class="cls-2" d="M167.37,168.88,57.14,161,57,171.83a2.73,2.73,0,0,1-4.38,2L13.58,147.38a2.37,2.37,0,0,1,.11-3.93l39.69-26.33c1.84-1.22,4.28-.17,4.25,1.85l-.12,10.53,108.47-9c2.5-.2,4.64,1.17,4.7,3L172,165.74C172,167.63,169.91,169.06,167.37,168.88Z"/><line class="cls-3" x1="21.11" y1="142.89" x2="20.54" y2="143.26"/><path class="cls-4" d="M20.54,144.92a1.66,1.66,0,0,1-.91-3l.57-.37A1.66,1.66,0,0,1,22,144.28l-.56.37A1.67,1.67,0,0,1,20.54,144.92Z"/><line class="cls-3" x1="43.89" y1="127.97" x2="24.9" y2="140.4"/><path class="cls-4" d="M24.9,142.06a1.62,1.62,0,0,1-1.38-.75A1.65,1.65,0,0,1,24,139l19-12.44a1.66,1.66,0,1,1,1.82,2.77l-19,12.44A1.67,1.67,0,0,1,24.9,142.06Z"/><path d="M57.33,154.64l.17-14.53a.27.27,0,0,0-.27-.29l-4.48.13a.26.26,0,0,1-.26-.28l0-3.21a.3.3,0,0,1,.27-.3l14.5-.64a.29.29,0,0,1,.29.3l0,3.4a.33.33,0,0,1-.31.32l-4.87.14a.31.31,0,0,0-.29.31L62,154.79a.29.29,0,0,1-.29.3l-4-.14A.31.31,0,0,1,57.33,154.64Z"/><path d="M84.7,155.54l0-7.89a.34.34,0,0,0-.34-.33l-7.85,0a.33.33,0,0,0-.33.32l0,7.64a.31.31,0,0,1-.33.31l-4.53-.16a.31.31,0,0,1-.31-.32l.14-19.42a.33.33,0,0,1,.31-.33l4.51-.2a.31.31,0,0,1,.32.31l0,7.35a.3.3,0,0,0,.32.31l7.84-.1a.34.34,0,0,0,.35-.33l0-7.6a.35.35,0,0,1,.34-.34l5-.22a.33.33,0,0,1,.35.32l0,20.89a.34.34,0,0,1-.36.33l-5-.17A.35.35,0,0,1,84.7,155.54Z"/><path d="M110.18,151.64l-7.8-.13a.39.39,0,0,0-.38.25l-1.43,4.4a.36.36,0,0,1-.37.24l-5.31-.18a.36.36,0,0,1-.36-.46l7.89-21.54a.41.41,0,0,1,.37-.26l7.4-.32a.4.4,0,0,1,.4.22l9,22.71a.38.38,0,0,1-.41.49l-6.71-.23a.45.45,0,0,1-.4-.28l-1.52-4.64A.43.43,0,0,0,110.18,151.64Zm-6.36-4.25h4.85a.37.37,0,0,0,.39-.46l-2.68-8h-.33l-2.61,8A.36.36,0,0,0,103.82,147.39Z"/><path d="M128.52,157l-.21-18.78a.41.41,0,0,0-.46-.37l-7.43.21a.4.4,0,0,1-.44-.36l0-4.11a.42.42,0,0,1,.44-.39l24.31-1.07c.28,0,.52.16.52.38l.07,4.45a.46.46,0,0,1-.5.41l-8.27.24a.45.45,0,0,0-.48.4l.26,19.24a.42.42,0,0,1-.48.38l-6.82-.23A.45.45,0,0,1,128.52,157Z"/><path d="M136.24,77.52c-4.73.3-8.65-3-8.65-7.33V65.75l-101,8.3-.62,0c-7.27.33-13.3-3.78-13.3-9.17V25.32c0-5.4,4.54-9.11,11.81-8.78l2.35.06,100.74,7.87V20c0-4.34,3.92-7.63,8.65-7.33a9.39,9.39,0,0,1,4.64,1.57l37.35,24.91a7.11,7.11,0,0,1,0,11.86L140.88,76A9.48,9.48,0,0,1,136.24,77.52Z"/><path class="cls-1" d="M18.38,66.52l117.24-8v10.9c0,2.09,2.55,3.21,4.45,2L180.66,44.7a2.41,2.41,0,0,0,0-4L140.07,13.56c-1.9-1.27-4.45-.18-4.45,1.92V26.37L21.09,17.62a11.87,11.87,0,0,0-5.84.58c-.95.44-1.65,1-1.65,2V63.36C13.6,65.26,15.79,66.69,18.38,66.52Z"/><path class="cls-5" d="M18.38,66.52l117.24-8v10.9c0,2.09,2.55,3.21,4.45,2L180.66,44.7a2.41,2.41,0,0,0,0-4L140.07,13.56c-1.9-1.27-4.45-.18-4.45,1.92V26.37L18.38,17.07c-2.59-.21-4.78,1.21-4.78,3.11V63.36C13.6,65.26,15.79,66.69,18.38,66.52Z"/><path class="cls-4" d="M54.74,56.78V35.84a.5.5,0,0,0-.53-.44l-9.1-.29a.55.55,0,0,1-.58-.46V29.73c0-.25.26-.43.58-.42l26.54,1.38a.46.46,0,0,1,.47.42v4.45a.42.42,0,0,1-.47.39l-8-.25a.45.45,0,0,0-.51.39V56.41a.49.49,0,0,1-.5.43l-7.37.35A.47.47,0,0,1,54.74,56.78Z"/><path class="cls-4" d="M95,55V46.25a.37.37,0,0,0-.39-.36L85,46a.42.42,0,0,0-.42.39v9.1a.44.44,0,0,1-.43.41l-6.25.29a.41.41,0,0,1-.45-.38V31.38a.4.4,0,0,1,.45-.37l6.25.33a.43.43,0,0,1,.43.4v8.83A.41.41,0,0,0,85,41l9.59.13a.37.37,0,0,0,.39-.36V32.26a.36.36,0,0,1,.39-.34l5.42.28a.38.38,0,0,1,.37.37V54.7a.38.38,0,0,1-.37.37l-5.42.25A.36.36,0,0,1,95,55Z"/><path class="cls-4" d="M118.7,49.6l-6.33.16a.35.35,0,0,0-.32.25l-1.25,4.35a.36.36,0,0,1-.33.26l-4.89.23a.34.34,0,0,1-.34-.45L112.45,33a.31.31,0,0,1,.32-.21l6,.31a.33.33,0,0,1,.3.24l6.39,20.14a.33.33,0,0,1-.28.43l-4.76.22a.29.29,0,0,1-.3-.22L119,49.83A.32.32,0,0,0,118.7,49.6Zm-5.09-3.83,3.93,0a.33.33,0,0,0,.31-.43l-2.1-7.53h-.27l-2.19,7.55A.33.33,0,0,0,113.61,45.77Z"/><path class="cls-4" d="M131.14,53.35V38.15a.31.31,0,0,0-.28-.32l-4.75-.15a.33.33,0,0,1-.3-.33V33.81a.29.29,0,0,1,.3-.3l14.09.73a.3.3,0,0,1,.26.31v3.29a.26.26,0,0,1-.26.28L135.87,38a.27.27,0,0,0-.26.29V53.15a.31.31,0,0,1-.27.32l-3.92.18A.28.28,0,0,1,131.14,53.35Z"/><line class="cls-3" x1="133.35" y1="29.41" x2="133.59" y2="29.42"/><path class="cls-4" d="M133.64,30.27h-.29a.89.89,0,0,1-.84-.89.81.81,0,0,1,.85-.82l.23,0a.89.89,0,0,1,.83.89A.8.8,0,0,1,133.64,30.27Z"/><line class="cls-3" x1="56.7" y1="23.93" x2="126.66" y2="28.9"/><path class="cls-4" d="M126.68,29.84h0l-70-4.17a2,2,0,0,1-2-1.89,1.86,1.86,0,0,1,2.15-1.59L126.67,28c.32,0,.57.46.57,1S127,29.83,126.68,29.84Z"/><path d="M98.74,102.9q-5.28,13.21-14.91,15.7a9.23,9.23,0,0,1-2.32.3q-5.08,0-10.26-6.17-3.48-4.17-3.48-10.83a37.62,37.62,0,0,1,3.92-15.8,24,24,0,0,1,4.11-6.16c1.84-2,3.6-3.08,5.26-3.08a3.84,3.84,0,0,1,2.68,1.19c.83.8,3.07,1.86,6.7,3.18A10.37,10.37,0,0,1,96.5,86.6Q99.64,93.26,99.63,98A12.91,12.91,0,0,1,98.74,102.9ZM91.6,96.73q-.63-7.24-3.48-8.64a2.08,2.08,0,0,0-.81-.2c-.71,0-1.6.66-2.68,2a8.89,8.89,0,0,1-2.76,2.68c-.42.2-1,0-1.79-.6a4,4,0,0,0-1.51-.89.59.59,0,0,0-.45.2q-3.12,3-3.12,9.24a13.9,13.9,0,0,0,1.78,7.26c1.67,2.71,3.06,4.07,4.2,4.07q3.92,0,7.58-5.47Q92,101.21,91.6,96.73Z"/><path d="M130.7,114.37a1,1,0,0,1,.21.64q0,1.63-3.42,2.49a84.54,84.54,0,0,1-9.41-9q-6.27-6.76-9.33-9.41-.23,1.86-.79,9.7a49.19,49.19,0,0,1-1.28,9.41,3.46,3.46,0,0,0-.89.35,1.84,1.84,0,0,1-1.25.22q-3.14-.72-3.13-4.35a18.93,18.93,0,0,1,.28-2.85c.19-1.38.31-2.24.36-2.57q.28-4.12.35-9.84V91.42a105.23,105.23,0,0,1,1.07-16.33q.72-4.41,8.34-4.06a8.76,8.76,0,0,1,6.7,3.85,11.88,11.88,0,0,1,2.64,7.41,11.13,11.13,0,0,1-2.5,6.7,15.51,15.51,0,0,1-5.27,4.71c-.86.47-1.28,1-1.28,1.56s.5,1.36,1.49,2.21l2.28,1.86,7.85,7.12A36.5,36.5,0,0,1,130.7,114.37Zm-15-32a9.73,9.73,0,0,0,.14-2.28,5.27,5.27,0,0,0-1.24-2.7,4.14,4.14,0,0,0-3.32-1.22c-1.14,0-1.85.36-2.14,1.07a21.48,21.48,0,0,0-.35,4.06c0,.62.07,2.21.21,4.78a37.65,37.65,0,0,1,0,4.78Q114.87,86.43,115.66,82.36Z"/></svg>